<?xml version="1.0" standalone="no"?>
<!DOCTYPE svg PUBLIC "-//W3C//DTD SVG 20010904//EN"
 "http://www.w3.org/TR/2001/REC-SVG-20010904/DTD/svg10.dtd">
<svg version="1.0" xmlns="http://www.w3.org/2000/svg"
 width="754.000000pt" height="754.000000pt" viewBox="0 0 754.000000 754.000000"
 preserveAspectRatio="xMidYMid meet">
<metadata>
Created by potrace 1.11, written by Peter Selinger 2001-2013
</metadata>
<g transform="translate(0.000000,754.000000) scale(0.100000,-0.100000)"
fill="#000000" stroke="none">
<path d="M2590 7528 c0 -7 -22 -23 -48 -36 -26 -12 -54 -27 -62 -32 -47 -30
-202 -120 -206 -120 -4 0 -51 -27 -106 -60 -54 -33 -101 -60 -104 -60 -14 0
-101 -75 -126 -110 -33 -45 -68 -136 -68 -178 0 -21 -7 -31 -27 -39 -33 -14
-99 -52 -208 -120 -11 -7 -47 -29 -80 -50 -166 -102 -332 -249 -434 -383 -88
-115 -180 -322 -181 -402 0 -18 -5 -28 -15 -28 -13 0 -15 -44 -15 -335 0 -279
2 -335 14 -335 10 0 15 -20 19 -72 9 -133 95 -535 157 -733 5 -16 19 -61 31
-100 31 -102 45 -143 69 -205 12 -30 32 -87 45 -125 13 -39 28 -81 33 -95 5
-14 18 -45 27 -70 10 -25 23 -58 30 -75 7 -16 18 -41 23 -55 106 -251 135
-315 245 -540 161 -328 430 -801 582 -1025 23 -33 75 -109 115 -170 90 -134
352 -485 429 -576 31 -36 81 -97 111 -134 122 -152 386 -426 590 -613 52 -47
252 -211 316 -259 153 -114 434 -282 511 -306 10 -3 50 -17 88 -31 39 -14 80
-26 93 -26 13 0 22 -6 22 -15 0 -13 31 -15 219 -15 185 0 220 2 225 15 3 8 16
15 29 15 25 0 102 23 154 46 17 8 35 14 40 14 18 0 325 151 403 198 19 12 49
28 67 36 17 8 36 24 43 35 13 25 40 27 82 5 56 -29 186 -11 258 36 32 21 221
130 225 130 2 0 44 24 92 53 48 29 95 56 103 60 97 48 174 115 201 177 8 16
20 30 26 30 10 0 13 29 13 115 0 96 -3 115 -15 115 -8 0 -15 6 -15 13 0 8 -31
66 -70 131 -38 65 -70 120 -70 122 0 4 -112 198 -130 224 -6 8 -13 22 -17 30
-4 8 -33 59 -65 113 -32 54 -58 100 -58 102 0 2 -38 67 -85 145 -47 78 -85
144 -85 147 0 3 -22 42 -49 87 -82 136 -91 150 -98 166 -4 8 -33 59 -65 113
-32 54 -58 100 -58 102 0 13 -159 266 -184 293 -17 18 -57 46 -90 62 -50 26
-71 30 -137 30 -73 0 -83 -3 -171 -49 -51 -26 -135 -73 -186 -105 -51 -31 -94
-56 -97 -56 -2 0 -38 -20 -79 -45 -42 -25 -79 -45 -82 -45 -23 0 -138 -103
-170 -151 -30 -48 -55 -146 -48 -191 l6 -36 -84 -41 c-169 -82 -322 -91 -508
-30 -495 162 -1053 899 -1244 1643 -45 174 -51 231 -50 461 0 213 1 223 28
300 50 145 117 231 250 319 58 39 90 44 122 22 11 -8 45 -19 76 -25 75 -13
162 8 253 62 17 10 47 28 157 92 64 37 249 144 280 161 97 54 163 135 186 227
15 61 15 91 -2 147 -15 49 -16 52 -154 290 -140 243 -242 420 -264 460 -11 19
-49 83 -84 141 -35 59 -64 109 -64 112 0 4 -31 58 -70 122 -38 64 -70 118 -70
120 0 2 -27 49 -60 105 -33 56 -60 103 -60 105 0 2 -30 55 -67 117 -38 63 -77
131 -88 153 -27 52 -125 152 -158 160 -15 4 -27 13 -27 21 0 11 -23 14 -115
14 -85 0 -115 -3 -115 -12z"/>
</g>
</svg>
